<svg width="61" height="57" viewBox="0 0 61 57" fill="none" xmlns="http://www.w3.org/2000/svg">
<path d="M59.0938 7.59985H51.4688L50.6157 5.90054C50.2991 5.26934 49.8124 4.73849 49.2102 4.36747C48.6079 3.99644 47.9139 3.79989 47.2059 3.79984H40.8176L37.5674 0.560333C36.3653 -0.636671 34.3125 0.211207 34.3125 1.9034V19.697L49.5625 25.125V20.8999H53.375C57.5866 20.8999 61 17.4977 61 13.2999V9.49986C61 8.45011 60.147 7.59985 59.0938 7.59985ZM45.75 13.2999C44.6968 13.2999 43.8438 12.4496 43.8438 11.3999C43.8438 10.3501 44.6968 9.49986 45.75 9.49986C46.8032 9.49986 47.6562 10.3501 47.6562 11.3999C47.6562 12.4496 46.8032 13.2999 45.75 13.2999ZM11.4375 22.7999C9.33586 22.7999 7.625 21.0946 7.625 18.9999C7.625 16.9016 5.91772 15.1999 3.8125 15.1999C1.70729 15.1999 0 16.9016 0 18.9999C0 23.947 3.19654 28.1259 7.625 29.6993V55.1C7.625 56.1497 8.47805 57 9.53125 57H17.1562C18.2095 57 19.0625 56.1497 19.0625 55.1V41.8H38.125V55.1C38.125 56.1497 38.978 57 40.0312 57H47.6562C48.7095 57 49.5625 56.1497 49.5625 55.1V29.159L31.6974 22.7999H11.4375Z" fill="black"/>
</svg>
