<svg width="68" height="60" viewBox="0 0 68 60" fill="none" xmlns="http://www.w3.org/2000/svg">
<path d="M34.0006 13.4775L8.20234 36.0602C8.0111 36.2313 7.76673 36.311 7.55659 36.4528V58.125C7.55659 58.6223 7.7556 59.0992 8.10983 59.4508C8.46405 59.8025 8.94449 60 9.44545 60H58.5557C59.0566 60 59.5371 59.8025 59.8913 59.4508C60.2455 59.0992 60.4445 58.6223 60.4445 58.125V36.4575C60.2438 36.3216 60.0054 36.2442 59.8236 36.0825L34.0006 13.4775ZM45.3337 44.0628C45.3337 44.3114 45.2342 44.5499 45.0571 44.7257C44.88 44.9015 44.6397 45.0003 44.3893 45.0003H37.7783V51.5627C37.7783 51.8113 37.6788 52.0498 37.5016 52.2256C37.3245 52.4014 37.0843 52.5001 36.8338 52.5001H31.1673C30.9168 52.5001 30.6766 52.4014 30.4995 52.2256C30.3223 52.0498 30.2228 51.8113 30.2228 51.5627V45.0003H23.6119C23.3614 45.0003 23.1212 44.9015 22.944 44.7257C22.7669 44.5499 22.6674 44.3114 22.6674 44.0628V38.4379C22.6674 38.1893 22.7669 37.9508 22.944 37.775C23.1212 37.5992 23.3614 37.5004 23.6119 37.5004H30.2228V30.9381C30.2228 30.6894 30.3223 30.451 30.4995 30.2752C30.6766 30.0994 30.9168 30.0006 31.1673 30.0006H36.8338C37.0843 30.0006 37.3245 30.0994 37.5016 30.2752C37.6788 30.451 37.7783 30.6894 37.7783 30.9381V37.5004H44.3893C44.6397 37.5004 44.88 37.5992 45.0571 37.775C45.2342 37.9508 45.3337 38.1893 45.3337 38.4379V44.0628ZM67.3731 27.6897L37.1585 1.20583C36.2937 0.429714 35.1694 0 34.0035 0C32.8377 0 31.7133 0.429714 30.8485 1.20583L0.626857 27.6897C0.442246 27.8542 0.292105 28.0533 0.185011 28.2755C0.077916 28.4976 0.0159667 28.7386 0.00270151 28.9845C-0.0105637 29.2304 0.0251153 29.4766 0.1077 29.7088C0.190285 29.9411 0.318157 30.1549 0.484013 30.3381L3.01154 33.1294C3.17731 33.3127 3.37783 33.4617 3.60165 33.568C3.82546 33.6743 4.06818 33.7358 4.31595 33.749C4.56371 33.7622 4.81166 33.7267 5.04563 33.6448C5.2796 33.5628 5.495 33.4359 5.67954 33.2712L32.7516 9.56699C33.0966 9.2648 33.541 9.09805 34.0011 9.09805C34.4613 9.09805 34.9057 9.2648 35.2507 9.56699L62.3227 33.2701C62.5073 33.4347 62.7227 33.5616 62.9567 33.6436C63.1906 33.7256 63.4386 33.761 63.6863 33.7478C63.9341 33.7347 64.1768 33.6732 64.4006 33.5669C64.6245 33.4605 64.825 33.3115 64.9908 33.1283L67.5171 30.3369C67.8515 29.9669 68.0243 29.4801 67.9972 28.9837C67.9702 28.4873 67.7457 28.0218 67.3731 27.6897Z" fill="black"/>
</svg>
