<svg width="75" height="57" viewBox="0 0 75 57" fill="none" xmlns="http://www.w3.org/2000/svg">
<path d="M55.9863 10.6875H63.5596V46.2531H55.9863V43.1805C53.0859 46.8617 48.252 46.7578 45.1758 45.3625C41.3379 43.6258 38.6865 39.707 38.6865 34.7047C38.6865 30.2812 40.8545 26.1102 45.0293 24.1953C47.9883 22.8445 52.749 22.6219 55.9863 26.1102V10.6875ZM46.5088 34.7047C46.5088 37.4062 48.501 39.6773 51.3721 39.6773C54.2725 39.6773 56.2354 37.243 56.2354 34.7938C56.2354 32.2555 54.2285 29.8656 51.3721 29.8656C48.501 29.8656 46.5088 32.3 46.5088 34.7047ZM27.6123 10.6875H35.1855V46.2531H27.6123V43.1805C24.7119 46.8617 19.8779 46.7578 16.8018 45.3625C12.9639 43.6258 10.3125 39.707 10.3125 34.7047C10.3125 30.2812 12.4805 26.1102 16.6553 24.1953C19.6143 22.8445 24.375 22.6219 27.6123 26.1102V10.6875ZM18.1348 34.7047C18.1348 37.4062 20.127 39.6773 22.998 39.6773C25.8984 39.6773 27.8613 37.243 27.8613 34.7938C27.8613 32.2555 25.8545 29.8656 22.998 29.8656C20.1123 29.8656 18.1348 32.3 18.1348 34.7047ZM65.625 4.75C68.1885 4.75 70.3125 6.8875 70.3125 9.5V47.5C70.3125 50.0977 68.2031 52.25 65.625 52.25H9.375C6.81152 52.25 4.6875 50.1125 4.6875 47.5V9.5C4.6875 6.90234 6.79688 4.75 9.375 4.75H65.625ZM65.625 0H9.375C4.21875 0 0 4.275 0 9.5V47.5C0 52.725 4.21875 57 9.375 57H65.625C70.7812 57 75 52.725 75 47.5V9.5C75 4.275 70.7812 0 65.625 0Z" fill="black"/>
</svg>
