<?xml version="1.0" standalone="no"?>
<!DOCTYPE svg PUBLIC "-//W3C//DTD SVG 20010904//EN"
 "http://www.w3.org/TR/2001/REC-SVG-20010904/DTD/svg10.dtd">
<svg version="1.0" xmlns="http://www.w3.org/2000/svg"
 width="1600.000000pt" height="720.000000pt" viewBox="0 0 1600.000000 720.000000"
 preserveAspectRatio="xMidYMid meet">

<g transform="translate(0.000000,720.000000) scale(0.100000,-0.100000)"
fill="#000000" stroke="none">
<path d="M8730 7086 c-14 -17 -25 -39 -25 -51 0 -15 -6 -19 -22 -17 -17 2 -21
-1 -17 -12 7 -19 1 -20 -43 -4 -18 7 -32 17 -32 23 4 33 -3 65 -13 63 -6 -2
-24 -15 -39 -30 -25 -25 -28 -26 -55 -12 -18 10 -30 11 -32 5 -3 -10 -83 -7
-140 5 -15 3 -21 1 -17 -6 3 -5 -2 -10 -12 -10 -11 0 -23 -4 -29 -10 -5 -5
-47 -16 -94 -25 -98 -19 -182 -42 -219 -61 -14 -8 -36 -14 -49 -14 -31 0 -81
-22 -116 -51 -75 -63 -208 -202 -221 -232 -7 -17 -39 -54 -70 -81 -31 -27 -62
-63 -69 -80 -7 -17 -28 -45 -47 -62 -19 -17 -36 -37 -38 -45 -2 -8 -8 -32 -13
-54 -5 -22 -15 -47 -22 -55 -50 -60 -127 -411 -111 -504 19 -103 30 -320 22
-411 -8 -94 -6 -107 21 -210 16 -60 33 -121 37 -134 7 -21 6 -23 -11 -17 -54
23 -58 19 -19 -20 22 -22 49 -52 60 -66 12 -14 27 -27 34 -29 15 -5 31 -165
18 -178 -6 -6 -6 -33 0 -68 l9 -58 7 60 c4 33 18 123 31 200 14 77 30 172 36
210 11 68 64 195 81 195 5 0 9 6 9 14 0 8 4 16 9 18 12 4 74 119 67 125 -3 3
1 11 8 19 11 11 22 86 26 184 1 41 6 66 14 79 7 11 5 13 -7 8 -11 -4 -14 -2
-11 8 7 16 31 27 38 16 6 -9 108 10 117 21 3 5 20 10 37 11 18 1 34 7 36 14 3
6 18 14 35 18 17 4 31 11 31 16 0 5 3 8 8 6 4 -1 19 8 32 21 19 18 32 22 57
17 17 -3 34 -1 37 4 7 11 76 10 76 -1 0 -4 13 -5 30 -2 23 5 36 0 60 -20 18
-15 44 -26 60 -26 16 0 31 -6 33 -12 3 -8 6 -6 6 5 1 20 5 21 32 6 11 -5 17
-14 14 -19 -3 -6 1 -7 9 -4 8 3 24 0 36 -6 16 -9 25 -9 35 0 11 9 22 8 47 -4
18 -9 47 -17 63 -19 17 -2 37 -7 45 -12 25 -16 94 -12 107 5 9 11 12 12 13 2
0 -9 7 -11 20 -7 12 4 28 1 37 -7 9 -7 21 -13 27 -13 6 0 20 -6 32 -14 18 -12
20 -21 16 -56 -5 -45 12 -69 30 -44 8 11 9 10 4 -3 -3 -10 -1 -20 4 -23 12 -8
70 -94 70 -105 0 -4 6 -11 13 -13 9 -4 9 -6 0 -6 -9 -1 -10 -8 -3 -27 6 -14
10 -37 10 -51 0 -17 4 -24 14 -20 12 5 12 0 5 -26 -5 -18 -9 -33 -9 -34 0 -2
-9 -3 -19 -3 -11 0 -22 -8 -25 -17 -3 -10 -31 -45 -61 -77 -41 -44 -53 -61
-43 -68 8 -5 0 -6 -17 -2 -26 5 -33 2 -45 -21 -13 -25 -54 -51 -73 -46 -5 1
-6 -3 -3 -8 4 -5 -14 -17 -39 -26 -24 -10 -47 -26 -50 -36 -8 -23 -38 -41 -59
-33 -17 6 -41 -30 -30 -47 4 -6 0 -16 -7 -21 -10 -7 -7 -7 9 -3 16 5 24 2 28
-12 3 -10 13 -34 22 -53 18 -41 35 -199 26 -252 -3 -20 -1 -46 5 -57 6 -11 13
-43 14 -70 2 -28 6 -54 10 -57 4 -4 7 -17 7 -30 0 -12 7 -24 15 -28 23 -8 18
-57 -10 -99 -14 -20 -29 -37 -33 -37 -4 0 -18 -16 -31 -36 -14 -20 -41 -42
-63 -51 -49 -20 -48 -39 1 -53 35 -9 40 -14 39 -39 -1 -18 -5 -27 -13 -25 -8
3 -10 -5 -7 -26 3 -24 1 -29 -11 -24 -9 3 -18 15 -20 27 -3 20 -4 20 -15 -7
-9 -21 -17 -27 -33 -23 -16 4 -20 1 -17 -16 2 -14 11 -23 25 -25 17 -3 20 1
16 16 -2 11 0 23 6 26 16 10 51 -12 45 -28 -8 -20 35 -43 47 -25 6 10 10 10
23 0 25 -21 20 -28 -29 -40 -40 -10 -45 -14 -45 -40 0 -23 -5 -31 -22 -34 -13
-2 11 -5 52 -6 92 -2 107 -9 89 -42 -7 -13 -19 -29 -28 -35 -13 -10 -13 -15
-2 -28 11 -13 8 -18 -21 -36 -18 -11 -42 -18 -54 -15 -13 3 -32 -3 -47 -15
-27 -22 -42 -26 -32 -10 6 10 -10 15 -30 10 -9 -2 -38 -7 -57 -9 -5 -1 -8 -11
-8 -24 0 -22 40 -67 58 -67 10 0 52 -47 52 -58 0 -10 78 -51 84 -44 4 3 6 16
6 28 0 16 -5 22 -14 18 -8 -3 -17 -1 -20 4 -7 12 17 23 31 14 12 -8 25 -162
13 -162 -4 0 -11 15 -14 33 l-7 32 -19 -23 c-10 -12 -30 -23 -47 -23 -15 -1
-38 -6 -51 -12 -18 -9 -25 -8 -32 3 -6 8 -10 11 -10 5 0 -5 -4 -16 -8 -23 -11
-17 -62 1 -62 23 0 8 -5 15 -10 15 -6 0 -9 -12 -8 -26 4 -35 -37 -46 -45 -13
-7 28 -24 16 -36 -24 -9 -30 -10 -31 -16 -9 -9 28 -25 29 -25 1 0 -15 -4 -19
-16 -15 -9 3 -23 6 -32 6 -14 1 -13 4 6 19 19 17 30 41 18 41 -3 0 -25 -11
-50 -24 -29 -16 -43 -19 -39 -10 3 8 11 14 18 14 8 0 11 8 8 20 -3 11 -9 18
-13 15 -4 -2 -5 7 -2 20 2 15 0 25 -7 25 -6 0 -10 -3 -10 -7 1 -5 0 -12 -1
-18 -2 -5 -3 -19 -4 -30 -2 -30 -30 -24 -34 7 -2 19 -10 28 -25 30 -20 4 -18
6 14 26 26 16 38 31 41 52 3 17 3 30 1 30 -10 0 -33 -30 -33 -42 0 -8 -5 -6
-11 5 -6 9 -14 15 -20 12 -5 -4 -9 8 -9 24 0 17 -5 31 -11 31 -5 0 -8 -4 -5
-8 9 -14 -14 -86 -32 -99 -21 -17 -32 -16 -32 2 0 20 -9 19 -33 -3 -11 -9 -17
-12 -14 -6 4 7 0 14 -8 18 -8 3 -15 13 -15 23 0 14 -8 18 -40 17 -25 0 -41 5
-44 13 -3 8 -1 11 4 8 6 -3 10 1 10 9 0 19 -36 22 -42 4 -3 -7 -7 -5 -11 6 -4
10 -3 15 3 11 6 -3 10 0 10 8 0 8 -7 18 -16 21 -8 3 -12 11 -8 18 5 8 0 9 -14
6 -21 -6 -26 1 -25 39 0 6 -5 9 -12 7 -8 -3 -15 9 -19 35 -4 26 -13 44 -27 51
-12 7 -18 18 -15 26 3 9 1 12 -4 9 -6 -3 -10 5 -10 19 0 14 -6 29 -12 33 -20
12 -37 69 -33 108 2 19 -1 35 -6 35 -5 0 -9 -6 -10 -12 0 -7 -6 9 -14 36 -7
28 -11 56 -8 63 3 7 -1 13 -8 13 -7 0 -10 2 -7 5 3 3 0 22 -7 43 l-13 37 -259
-3 c-261 -2 -994 -15 -1797 -32 -250 -5 -443 -13 -449 -19 -6 -6 -5 -81 2
-203 22 -370 32 -565 47 -913 8 -192 19 -442 25 -555 5 -113 12 -342 15 -510
3 -168 7 -315 10 -327 4 -20 10 -23 58 -23 l55 0 -10 -32 c-6 -18 -17 -57 -25
-86 -8 -30 -20 -63 -26 -75 -12 -21 -12 -21 -19 8 -4 17 -7 58 -8 92 -1 57 -2
61 -22 56 -16 -4 -20 -12 -16 -30 2 -13 2 -21 -1 -18 -3 2 -12 -1 -20 -7 -11
-10 -16 -8 -24 6 -9 17 -11 17 -24 -2 -8 -11 -12 -26 -11 -34 2 -7 2 -10 0 -5
-3 4 -22 7 -44 7 -32 0 -39 3 -39 20 0 11 -4 20 -10 20 -5 0 -10 -11 -10 -24
0 -29 -17 -43 -33 -27 -16 16 -27 14 -27 -6 0 -9 -3 -14 -6 -10 -4 3 -2 19 4
36 13 36 5 74 -14 67 -9 -3 -11 0 -7 11 5 13 2 15 -15 11 -15 -4 -25 0 -32 10
-8 14 -10 11 -11 -13 -1 -19 -4 -9 -9 25 -6 37 -5 59 3 68 8 11 7 16 -6 23
-12 7 -17 23 -17 52 0 51 -29 83 -73 78 -23 -2 -28 1 -25 16 2 15 -4 18 -37
21 -63 4 -85 -5 -85 -33 0 -17 -6 -25 -18 -25 -12 0 -18 7 -17 23 0 12 -4 23
-10 24 -5 1 -9 -9 -8 -23 2 -32 -15 -31 -23 1 -3 14 -10 22 -15 19 -6 -3 -7
-14 -4 -24 8 -24 -48 -49 -69 -30 -10 8 -21 8 -32 2 -11 -6 -13 -11 -5 -16 18
-12 13 -26 -10 -26 -16 0 -20 -5 -17 -18 4 -15 1 -18 -18 -14 -14 2 -24 0 -24
-7 0 -8 -6 -7 -20 1 -11 7 -20 18 -20 25 0 21 -13 15 -47 -24 -18 -21 -33 -32
-33 -25 0 16 -66 16 -86 -1 -9 -6 -24 -20 -35 -30 -20 -18 -95 -25 -84 -7 4 6
15 8 26 5 15 -5 19 -1 19 16 0 12 6 30 14 38 13 14 13 19 0 35 -12 18 -14 18
-14 2 0 -24 -34 -58 -56 -56 -11 1 -38 2 -61 1 -40 -1 -43 -3 -43 -29 0 -24
-6 -30 -36 -40 -20 -6 -42 -8 -49 -6 -16 7 -27 -36 -13 -53 7 -9 7 -13 -1 -13
-6 0 -19 9 -28 20 -19 22 -33 26 -33 9 0 -7 -8 -18 -17 -25 -16 -12 -16 -13
-1 -14 9 0 19 6 22 13 5 9 7 9 12 0 3 -7 14 -13 25 -13 19 0 19 -1 3 -26 -15
-22 -15 -27 -3 -35 11 -7 9 -9 -7 -9 -17 0 -20 5 -16 30 3 18 0 30 -7 30 -6 0
-11 -4 -11 -10 0 -5 -7 -7 -15 -4 -11 5 -15 -1 -15 -19 0 -20 -6 -27 -28 -30
-15 -3 74 -3 198 0 124 3 223 3 220 0 -3 -3 -127 -11 -275 -18 -240 -10 -274
-14 -307 -32 -21 -11 -41 -18 -45 -14 -3 4 -7 58 -7 119 -1 162 32 245 121
307 29 19 56 27 113 32 158 15 264 40 274 65 9 25 -4 63 -25 69 -23 8 -301
-53 -314 -69 -5 -6 -22 -17 -37 -23 -15 -7 -46 -29 -68 -49 -43 -39 -59 -36
-60 11 0 38 -47 120 -92 161 -57 53 -145 101 -289 158 -145 57 -255 86 -331
86 l-58 0 0 903 c0 496 -3 943 -6 992 -5 67 -14 106 -34 151 -29 64 -34 67
-105 79 -22 3 -87 15 -145 25 -58 11 -157 29 -220 40 -63 11 -140 25 -170 30
-30 6 -143 26 -250 45 -107 20 -240 44 -295 55 -55 11 -165 31 -245 45 -240
44 -283 53 -289 64 -7 11 -255 31 -398 31 l-93 0 0 28 c0 44 -13 53 -79 59
l-61 6 0 -47 0 -46 -85 0 -85 0 0 -204 0 -204 57 -4 c32 -2 70 -12 85 -22 24
-16 25 -19 13 -43 -20 -38 -33 -43 -97 -36 l-58 6 0 -2052 0 -2051 6250 0
6250 0 -24 54 c-22 49 -25 77 -35 293 -6 131 -16 321 -21 423 -5 102 -14 275
-20 385 -6 110 -17 310 -25 445 -19 329 -32 558 -50 905 -8 160 -20 363 -26
452 -16 256 -15 443 2 454 28 18 54 6 55 -27 1 -28 -1 -30 -27 -26 -24 4 -29
1 -29 -17 0 -18 4 -20 28 -15 51 11 52 12 52 63 0 54 0 54 -70 64 -27 4 -17
11 32 21 l28 6 -3 85 c-2 93 -11 104 -45 58 -18 -25 -27 -28 -79 -28 l-58 0 3
-133 c2 -76 -1 -132 -6 -132 -11 0 -21 89 -24 193 -1 63 -2 68 -22 65 -15 -2
-23 -13 -28 -43 -11 -58 1 -217 18 -230 10 -7 16 -64 23 -210 27 -513 41 -794
51 -950 5 -93 17 -309 25 -480 8 -170 20 -384 25 -475 20 -351 33 -671 27
-677 -4 -3 -11 5 -16 18 -11 29 -107 233 -231 495 -57 118 -117 254 -207 464
-145 339 -297 566 -461 687 -42 31 -101 83 -131 114 -56 61 -82 74 -171 84
-68 8 -162 35 -175 51 -5 6 -23 14 -40 17 -16 3 -68 17 -115 30 -95 29 -213
47 -298 47 -59 0 -140 20 -252 63 -36 13 -87 28 -115 31 -74 10 -113 24 -185
67 -36 21 -94 46 -130 55 -74 18 -99 32 -154 85 -22 21 -60 45 -85 54 -25 10
-52 25 -59 34 -11 14 -14 14 -22 1 -8 -12 -14 -10 -37 12 -16 15 -43 32 -60
38 -17 6 -34 19 -37 28 -3 9 -17 37 -31 62 -24 42 -25 53 -25 192 0 131 2 151
21 182 12 20 24 36 27 36 4 0 20 29 36 65 16 36 33 65 37 65 5 0 9 10 9 23 0
13 4 27 9 32 16 19 83 241 111 368 5 23 21 96 35 162 59 273 76 433 51 487 -8
18 -18 67 -21 108 -4 41 -9 93 -11 115 -3 22 -7 69 -9 105 l-4 65 9 -55 c9
-53 30 -209 35 -260 5 -53 6 -55 16 -31 5 13 16 56 23 95 8 39 18 89 22 111
11 56 7 77 -20 100 l-24 20 14 90 c14 93 44 240 69 335 12 45 22 353 15 450
-1 8 3 38 8 65 5 28 10 44 11 36 0 -8 4 -12 7 -9 3 4 -2 20 -11 38 -18 35 -16
76 3 73 14 -3 17 33 3 42 -6 3 -9 13 -9 23 1 27 -6 45 -24 62 -23 20 -35 70
-17 70 7 0 2 12 -13 28 -15 15 -39 54 -54 87 -25 55 -64 105 -83 105 -4 0 -16
16 -27 35 -10 19 -22 35 -26 35 -4 0 -19 24 -33 53 -33 68 -45 82 -75 92 -14
4 -38 17 -53 28 -23 15 -28 26 -25 48 5 30 -10 43 -37 33 -8 -4 -15 -2 -15 4
0 12 -43 23 -112 31 -5 1 -8 5 -8 11 0 5 -14 23 -31 40 -24 23 -41 30 -70 30
-21 0 -40 4 -43 9 -3 5 -17 12 -32 15 -14 4 -43 18 -65 32 -39 24 -39 25 -24
54 14 27 14 29 -2 23 -10 -4 -28 -13 -40 -21 -21 -13 -24 -12 -30 5 -7 18 -10
18 -33 -11z m20 -21 c-7 -9 -15 -13 -17 -11 -7 7 7 26 19 26 6 0 6 -6 -2 -15z
m940 -915 c0 -5 -4 -10 -9 -10 -6 0 -13 5 -16 10 -3 6 1 10 9 10 9 0 16 -4 16
-10z m-163 -1072 c-3 -8 -6 -5 -6 6 -1 11 2 17 5 13 3 -3 4 -12 1 -19z m-537
-241 c0 -7 9 -30 20 -52 25 -49 25 -48 -7 -41 -16 3 -47 8 -70 11 -24 4 -43
11 -43 16 0 4 15 24 33 43 32 35 67 47 67 23z m40 3 c0 -5 -5 -10 -11 -10 -5
0 -7 5 -4 10 3 6 8 10 11 10 2 0 4 -4 4 -10z m7 -262 c8 -6 54 -8 120 -4 117
7 138 7 167 3 19 -4 56 -44 56 -62 0 -5 -5 -3 -10 5 -8 13 -10 12 -10 -4 0
-11 -4 -33 -10 -50 -5 -17 -12 -43 -14 -57 -6 -26 -56 -89 -56 -70 0 24 -21 9
-26 -19 -7 -34 -21 -38 -40 -12 -12 16 -13 15 -14 -5 0 -16 -6 -23 -19 -23
-10 0 -21 -6 -24 -14 -4 -9 -19 -13 -45 -11 -48 3 -62 11 -62 35 0 13 -5 17
-14 14 -8 -3 -17 -1 -21 5 -3 6 1 11 9 11 9 0 16 9 16 20 0 12 -5 17 -14 14
-17 -6 -25 15 -36 91 -5 34 -16 65 -25 71 -20 15 -19 24 3 40 10 8 12 13 5 14
-7 0 -13 7 -13 16 0 12 7 14 33 9 17 -4 38 -12 44 -17z m-7890 -94 c-3 -3 -12
-4 -19 -1 -8 3 -5 6 6 6 11 1 17 -2 13 -5z m197 -46 c-3 -4 1 -11 9 -14 18 -6
41 -57 35 -75 -6 -18 -36 -20 -42 -3 -3 8 -16 14 -30 14 -14 0 -28 5 -31 10
-4 6 10 10 35 10 27 0 39 4 34 11 -3 6 -15 9 -25 6 -11 -3 -19 -1 -19 4 0 5
-9 18 -20 29 -22 22 -25 19 -10 -11 6 -11 7 -19 1 -19 -5 0 -15 15 -22 33 -7
17 -14 35 -16 38 -2 4 21 0 51 -9 30 -8 53 -19 50 -24z m-185 -4 c2 -2 2 -7
-1 -10 -9 -9 -78 7 -78 18 0 9 69 2 79 -8z m-34 -44 c16 -17 16 -20 2 -20 -14
0 -47 25 -47 36 0 12 29 2 45 -16z m249 -76 c35 -5 46 -11 44 -23 -5 -27 -128
-13 -128 15 0 16 15 17 84 8z m-1017 -168 c-1 -6 -11 -15 -23 -22 -23 -13
-110 -4 -107 11 1 6 -3 16 -9 23 -8 9 -1 12 30 12 23 0 43 4 47 9 7 12 64 -19
62 -33z m11928 -586 c-3 -5 -10 -10 -16 -10 -5 0 -9 5 -9 10 0 6 7 10 16 10 8
0 12 -4 9 -10z m-4655 -25 c0 -17 115 -170 163 -216 20 -20 37 -41 37 -48 0
-6 4 -11 9 -11 5 0 19 -11 32 -25 13 -13 29 -25 36 -25 7 0 16 -6 20 -13 4 -7
28 -29 53 -48 24 -18 51 -40 58 -46 7 -7 20 -13 28 -13 9 0 14 -7 12 -17 -2
-12 7 -21 27 -28 42 -15 75 -38 75 -52 0 -7 7 -13 15 -13 9 0 18 -7 22 -16 3
-8 11 -13 17 -11 7 3 13 -5 14 -17 1 -23 36 -56 59 -56 9 0 12 -6 9 -17 -4
-13 7 -27 35 -48 36 -27 39 -32 35 -68 -5 -44 1 -53 57 -81 20 -11 37 -24 37
-31 0 -6 25 -18 55 -25 30 -7 62 -21 71 -32 10 -10 24 -18 32 -18 11 0 13 -11
11 -44 -2 -24 -1 -42 4 -39 4 2 7 -5 7 -17 0 -12 -4 -18 -10 -15 -12 8 -13 -1
-1 -42 6 -21 5 -35 -2 -42 -8 -8 -8 -11 2 -11 7 0 11 -9 9 -22 -5 -33 -91 -60
-216 -66 -93 -4 -240 10 -267 26 -5 3 -18 7 -29 8 -11 0 -22 6 -24 12 -2 7
-12 12 -23 12 -10 0 -19 5 -19 10 0 6 -7 10 -15 10 -29 0 -191 76 -295 138
-105 63 -156 107 -202 175 -86 127 -98 194 -49 281 16 28 44 94 62 146 34 95
34 95 34 287 0 105 3 189 8 186 4 -2 7 -10 7 -18z m-7069 -163 c-29 -54 -49
-345 -28 -402 3 -8 7 -37 10 -65 l5 -50 -20 45 c-11 25 -24 83 -30 130 -7 56
-16 89 -27 98 -14 12 -14 13 0 9 12 -4 19 12 32 82 9 48 17 94 17 101 0 7 -27
-12 -59 -43 -54 -52 -71 -64 -71 -53 0 2 37 41 82 85 79 79 109 100 89 63z
m7409 -27 c0 -8 -7 -15 -15 -15 -16 0 -20 12 -8 23 11 12 23 8 23 -8z m4233
-117 c4 -46 6 -126 6 -178 -1 -88 -2 -91 -9 -40 -14 97 -22 300 -12 300 5 0
12 -37 15 -82z m-3893 1 c0 -5 -7 -9 -15 -9 -15 0 -20 12 -9 23 8 8 24 -1 24
-14z m37 5 c-3 -3 -12 -4 -19 -1 -8 3 -5 6 6 6 11 1 17 -2 13 -5z m-187 -24
c0 -5 -4 -10 -10 -10 -5 0 -10 5 -10 10 0 6 5 10 10 10 6 0 10 -4 10 -10z
m-7810 -70 c8 -5 11 -10 5 -10 -5 0 -17 5 -25 10 -8 5 -10 10 -5 10 6 0 17 -5
25 -10z m750 -40 c173 -11 380 -25 460 -30 80 -5 189 -12 243 -16 67 -4 97
-10 94 -17 -5 -14 -62 -13 -357 9 -113 8 -304 21 -425 29 -121 9 -269 20 -330
25 -60 5 -118 10 -127 10 -10 0 -18 5 -18 10 0 7 25 9 73 5 39 -3 214 -14 387
-25z m960 21 c0 -6 -5 -13 -10 -16 -15 -9 -43 3 -35 15 8 13 45 13 45 1z m329
-23 c12 -20 10 -25 -33 -66 -25 -24 -46 -52 -46 -61 0 -21 -26 -44 -103 -95
-47 -30 -61 -35 -73 -25 -23 19 -16 43 26 84 23 22 40 49 40 61 0 23 26 46
110 96 55 33 62 34 79 6z m-215 -34 c9 -3 16 -13 16 -21 0 -8 -4 -12 -9 -9 -5
3 -11 -1 -15 -9 -3 -8 -16 -14 -28 -14 -17 1 -18 2 -5 6 9 2 17 8 17 13 0 4
-8 11 -17 15 -17 7 -16 8 2 15 11 5 21 9 22 9 1 1 8 -2 17 -5z m-97 -26 c-3
-8 -6 -5 -6 6 -1 11 2 17 5 13 3 -3 4 -12 1 -19z m-116 2 c5 0 9 -4 9 -10 0
-5 -13 -10 -30 -10 -29 0 -38 9 -23 24 4 3 13 4 21 1 7 -3 18 -5 23 -5z m57
-114 c3 -13 -1 -17 -14 -14 -11 2 -20 11 -22 22 -3 13 1 17 14 14 11 -2 20
-11 22 -22z m10199 -88 c-2 -18 -4 -6 -4 27 0 33 2 48 4 33 2 -15 2 -42 0 -60z
m0 -90 c-2 -13 -4 -5 -4 17 -1 22 1 32 4 23 2 -10 2 -28 0 -40z m10 -95 c-3
-10 -5 -2 -5 17 0 19 2 27 5 18 2 -10 2 -26 0 -35z m-5986 -100 c0 -11 3 -13
6 -5 6 15 39 16 48 2 4 -6 1 -18 -6 -26 -10 -12 -9 -13 5 -8 9 3 16 1 16 -5 0
-6 -9 -11 -20 -11 -11 0 -20 4 -20 9 0 5 -7 11 -14 14 -10 4 -13 1 -9 -9 4
-11 -7 -14 -63 -13 -38 0 -64 3 -58 5 7 3 10 14 7 24 -4 17 0 20 25 20 17 0
34 5 37 10 11 17 45 11 46 -7z m239 8 c0 -20 -101 -33 -107 -14 -4 11 9 14 90
21 9 1 17 -2 17 -7z m-128 -16 c0 -5 -5 -11 -11 -13 -6 -2 -11 4 -11 13 0 9 5
15 11 13 6 -2 11 -8 11 -13z m-387 -25 c-5 -8 -11 -8 -17 -2 -6 6 -7 16 -3 22
5 8 11 8 17 2 6 -6 7 -16 3 -22z m133 13 c-3 -14 -12 -17 -48 -14 -25 1 -49 5
-54 9 -14 8 24 20 67 21 31 1 38 -2 35 -16z m-198 -8 c0 -8 -7 -15 -15 -15 -8
0 -15 7 -15 15 0 8 7 15 15 15 8 0 15 -7 15 -15z m-460 -10 c0 -8 -7 -15 -15
-15 -16 0 -20 12 -8 23 11 12 23 8 23 -8z m100 0 c0 -8 -7 -15 -15 -15 -8 0
-15 7 -15 15 0 8 7 15 15 15 8 0 15 -7 15 -15z m90 5 c0 -5 -7 -10 -15 -10 -8
0 -15 5 -15 10 0 6 7 10 15 10 8 0 15 -4 15 -10z m90 0 c0 -5 -4 -10 -9 -10
-6 0 -13 5 -16 10 -3 6 1 10 9 10 9 0 16 -4 16 -10z m340 -30 c-21 -13 -4 -60
23 -60 33 -1 -55 -38 -133 -57 -36 -8 -166 -21 -290 -28 -124 -7 -226 -14
-227 -14 -2 -1 -3 -81 -3 -180 0 -165 -2 -180 -21 -205 -11 -14 -25 -26 -30
-26 -12 0 -5 400 9 485 6 42 10 51 12 30 1 -16 2 -37 1 -45 0 -10 1 -11 5 -2
3 6 13 12 22 12 15 1 15 2 0 11 -24 14 -23 45 2 52 11 3 20 0 20 -6 0 -8 4 -7
9 2 6 9 39 15 112 18 57 2 174 7 259 11 85 4 175 8 199 9 27 1 39 -2 31 -7z
m48 -27 c2 -8 -5 -13 -17 -13 -12 0 -21 6 -21 16 0 18 31 15 38 -3z m65 2 c-4
-15 -36 -12 -41 3 -3 9 3 13 19 10 13 -1 23 -7 22 -13z m-3998 -50 c-16 -8
-37 -14 -45 -14 -8 0 -1 7 15 14 17 8 37 14 45 14 8 0 2 -7 -15 -14z m195 -92
c6 -16 14 -35 18 -43 10 -17 5 -40 -8 -40 -7 0 -40 83 -40 102 0 19 21 6 30
-19z m-842 -51 c-41 -5 -34 -16 20 -31 26 -8 52 -18 59 -23 7 -5 18 -6 24 -2
13 8 -26 29 -47 25 -7 -1 -14 5 -18 14 -8 21 12 19 63 -6 l43 -20 -26 -24
c-14 -13 -26 -29 -26 -35 0 -5 -9 -10 -20 -10 -21 0 -27 -15 -10 -25 6 -4 4
-15 -5 -29 l-15 -23 -75 36 c-78 37 -85 48 -64 94 14 32 86 78 107 69 13 -5
10 -8 -10 -10z m4166 -19 c-26 -19 -119 -14 -119 7 0 11 16 16 65 20 68 5 86
-4 54 -27z m-4035 -117 c-26 -56 -39 -66 -39 -30 0 25 47 90 57 80 2 -2 -6
-25 -18 -50z m281 -10 c-6 -20 -16 -34 -20 -31 -5 3 -2 21 7 40 21 44 29 38
13 -9z m90 -46 c13 -8 13 -10 -2 -10 -9 0 -20 5 -23 10 -8 13 5 13 25 0z m-10
-31 c0 -11 -3 -11 -24 -3 -23 9 -20 23 4 17 11 -3 20 -9 20 -14z m-20 -18 c0
-5 -7 -16 -15 -24 -11 -12 -12 -16 -2 -20 8 -3 5 -12 -10 -29 -13 -13 -23 -32
-23 -41 0 -9 -5 -17 -11 -17 -8 0 -9 11 -5 33 4 17 9 45 11 61 5 30 19 46 43
46 6 0 12 -4 12 -9z m2504 -320 c3 -5 -1 -14 -9 -21 -13 -10 -15 -9 -15 9 0
21 14 28 24 12z m56 -12 c0 -18 -2 -19 -15 -9 -15 12 -12 30 6 30 5 0 9 -10 9
-21z m-400 -188 c0 -4 -11 -6 -25 -3 -14 2 -25 6 -25 8 0 2 11 4 25 4 14 0 25
-4 25 -9z m-180 -11 c0 -5 -5 -10 -11 -10 -5 0 -7 5 -4 10 3 6 8 10 11 10 2 0
4 -4 4 -10z m-270 -70 c0 -5 -2 -10 -4 -10 -3 0 -8 5 -11 10 -3 6 -1 10 4 10
6 0 11 -4 11 -10z m87 -6 c-3 -3 -12 -4 -19 -1 -8 3 -5 6 6 6 11 1 17 -2 13
-5z m-528 -121 c1 -29 -3 -53 -9 -53 -5 0 -10 -7 -10 -15 0 -8 -15 -22 -32
-31 -18 -9 -42 -25 -54 -36 -18 -16 -25 -17 -47 -7 -19 8 -34 9 -59 1 l-33
-11 25 17 c47 31 139 124 172 172 38 55 46 49 47 -37z m415 62 c3 -8 1 -15 -4
-15 -6 0 -10 7 -10 15 0 8 2 15 4 15 2 0 6 -7 10 -15z m559 -12 c-24 -2 -62
-2 -85 0 -24 2 -5 4 42 4 47 0 66 -2 43 -4z m507 -3 c0 -5 -4 -10 -10 -10 -5
0 -10 5 -10 10 0 6 5 10 10 10 6 0 10 -4 10 -10z m4807 -66 c51 -29 73 -68 73
-125 0 -35 -6 -47 -34 -74 -50 -47 -96 -53 -152 -20 -47 28 -67 61 -62 104 3
29 28 37 84 26 25 -4 34 -11 34 -26 0 -17 -5 -18 -40 -13 -47 8 -51 -2 -17
-42 34 -39 81 -37 119 4 38 43 36 73 -8 118 -35 34 -39 36 -85 30 -57 -8 -69
5 -32 34 32 25 56 21 120 -16z m-662 -52 c-4 -28 -13 -59 -21 -69 -12 -16 -13
-10 -14 54 0 48 4 73 13 76 22 8 29 -11 22 -61z m-447 -50 c21 -138 30 -227
25 -234 -12 -20 -21 8 -28 84 -4 45 -16 116 -25 157 -10 42 -16 80 -13 85 12
18 32 -27 41 -92z m-1328 19 l0 -39 38 5 c34 4 42 1 60 -22 12 -15 22 -39 22
-52 0 -32 -26 -80 -49 -93 -23 -12 -126 -7 -126 6 3 61 19 194 26 212 13 35
29 26 29 -17z m1498 -98 l3 -133 -61 0 -60 0 0 58 c0 33 3 93 6 135 l7 77 51
-3 51 -2 3 -132z m-575 113 c6 -15 -2 -238 -9 -245 -2 -2 -34 0 -71 5 -50 7
-68 13 -68 24 0 12 13 15 55 15 54 0 55 0 58 31 3 31 2 31 -47 38 -35 5 -51
11 -51 21 0 11 13 15 50 15 l50 0 0 35 c0 34 -1 35 -39 35 -49 0 -71 8 -71 26
0 20 136 20 143 0z m312 -1 c54 -26 71 -94 39 -161 -24 -50 -59 -74 -108 -74
-80 0 -136 48 -136 118 0 99 110 162 205 117z m-1589 -39 l-6 -34 44 5 c39 5
46 3 61 -21 39 -59 -17 -149 -92 -145 -21 2 -44 0 -50 -4 -22 -13 -23 12 -8
110 19 119 20 123 41 123 13 0 15 -7 10 -34z m924 9 c0 -14 7 -28 15 -31 8 -4
15 -12 15 -20 0 -8 -7 -14 -15 -14 -11 0 -15 -11 -15 -39 0 -64 -15 -91 -50
-91 -34 0 -42 25 -10 33 16 4 20 14 20 50 0 36 -4 46 -20 50 -28 7 -25 26 5
37 15 6 25 17 25 30 0 11 7 20 15 20 9 0 15 -9 15 -25z m1298 -19 c17 -33 9
-87 -16 -109 -27 -25 -67 -31 -85 -13 -21 22 -27 20 -27 -8 0 -37 49 -49 82
-20 14 13 21 14 32 5 20 -17 10 -39 -26 -57 -42 -21 -75 -11 -95 30 -13 29
-14 38 -2 64 11 25 16 28 30 19 13 -8 23 -6 43 6 35 23 35 68 1 95 -22 18 -23
21 -8 24 30 7 57 -7 71 -36z m172 19 c74 -78 -32 -192 -118 -128 -39 29 -43
93 -8 128 35 35 93 35 126 0z m184 4 c36 -28 37 -89 1 -124 -55 -56 -145 -16
-145 64 0 48 35 81 85 81 18 0 44 -9 59 -21z m-6708 -24 c24 -10 35 -24 47
-59 l16 -46 -37 -1 c-107 -4 -117 -3 -113 11 2 8 6 39 9 68 5 58 4 57 78 27z
m4377 -6 c30 -16 37 -28 37 -71 0 -25 -8 -46 -26 -68 -24 -27 -32 -31 -72 -28
-30 2 -49 9 -56 21 -16 26 12 42 37 19 16 -15 21 -15 44 -2 15 8 28 21 31 29
4 11 -7 13 -57 8 -56 -5 -61 -4 -61 15 0 24 61 88 85 88 9 0 26 -5 38 -11z
m360 5 l37 -7 0 -67 c0 -77 -6 -100 -26 -100 -9 0 -14 19 -16 66 -2 50 -7 70
-20 78 -27 17 -48 -13 -55 -77 -5 -47 -9 -57 -24 -57 -22 0 -22 4 -9 84 14 87
25 94 113 80z m198 -23 c16 -16 29 -38 29 -49 0 -33 -21 -82 -40 -92 -41 -22
-120 -5 -120 25 0 22 20 28 39 11 22 -20 40 -20 63 1 30 27 21 33 -48 33 l-66
0 6 28 c9 35 50 72 82 72 15 0 38 -12 55 -29z m1270 6 c13 -30 -3 -97 -29
-120 -21 -19 -82 -34 -82 -21 0 5 14 21 32 36 l33 27 -27 1 c-34 0 -44 16 -29
44 13 24 58 55 79 56 7 0 17 -10 23 -23z m-1051 -25 c9 -15 12 -15 33 11 43
51 69 29 30 -26 l-25 -36 21 -34 c11 -19 21 -39 21 -46 0 -22 -29 -10 -47 19
-9 17 -20 30 -23 30 -3 0 -14 -13 -23 -30 -17 -28 -36 -38 -50 -24 -3 3 6 24
21 46 l26 40 -22 38 c-11 21 -19 40 -15 43 8 9 40 -10 53 -31z m-4816 -16
l-39 -44 -91 -1 -91 -1 -10 34 -11 34 92 -4 c65 -4 104 -1 136 10 25 8 47 15
49 15 2 1 -14 -19 -35 -43z m126 -16 c0 -29 -1 -30 -51 -30 -48 0 -50 1 -38
18 23 29 43 41 67 42 18 0 22 -5 22 -30z m8798 -246 l43 -85 -47 -64 -47 -64
-41 17 c-54 21 -106 52 -106 63 0 4 10 13 21 20 12 6 19 7 16 2 -4 -5 9 -10
28 -10 19 0 35 1 35 1 0 1 -7 19 -14 41 -12 34 -12 44 1 70 20 40 57 95 63 95
3 0 25 -39 48 -86z m-7836 59 c2 -5 21 -18 43 -30 38 -21 59 -53 35 -53 -6 0
-31 -14 -55 -30 -24 -17 -46 -27 -48 -23 -3 5 -4 32 -3 61 0 30 -2 56 -7 59
-4 2 -5 9 -2 14 7 11 32 12 37 2z m3046 -22 c3 -9 -2 -11 -17 -6 -28 8 -28
-18 -1 -52 28 -36 25 -43 -17 -42 -24 1 -29 3 -15 6 26 5 28 16 7 33 -29 24
-11 85 24 78 8 -2 16 -9 19 -17z m83 3 c11 -13 9 -14 -14 -9 -22 6 -27 4 -27
-12 0 -11 9 -28 20 -38 31 -28 25 -45 -16 -45 -21 0 -33 4 -29 10 3 6 13 10
21 10 18 0 18 14 -1 30 -18 15 -19 42 -3 58 16 16 33 15 49 -4z m97 -17 c11
-22 11 -32 0 -54 -15 -31 -55 -43 -69 -21 -14 22 -10 70 8 90 22 25 45 19 61
-15z m83 17 c11 -13 9 -14 -14 -9 -22 6 -27 4 -27 -12 0 -11 9 -28 20 -38 31
-28 25 -45 -16 -45 -22 0 -33 4 -29 11 4 6 13 8 21 5 18 -7 18 -4 -3 40 -17
35 -17 36 2 50 24 18 30 18 46 -2z m199 -48 c0 -30 -4 -58 -10 -61 -6 -3 -10
4 -10 16 0 21 -1 21 -18 6 -25 -23 -35 -21 -22 3 6 12 8 31 4 43 -7 22 -6 22
15 3 21 -19 21 -19 21 12 0 18 5 32 10 32 6 0 10 -24 10 -54z m-3286 -52 c-2
-118 -5 -154 -16 -154 -4 0 -8 -7 -8 -15 0 -8 -6 -14 -12 -12 -7 1 -12 -4 -10
-12 1 -7 -5 -19 -15 -27 -25 -19 -42 -17 -18 2 14 11 16 18 8 21 -7 3 -13 9
-13 15 0 6 7 8 15 4 8 -3 15 0 15 6 0 6 8 17 18 25 11 10 8 10 -10 -1 -25 -15
-31 -14 -30 4 1 8 -71 6 -84 -3 -7 -4 -15 -27 -18 -52 -5 -29 -12 -45 -22 -45
-8 0 -14 5 -14 10 0 6 -7 10 -16 10 -8 0 -12 5 -9 10 3 6 -1 10 -9 10 -9 0
-16 5 -16 11 0 6 -9 8 -20 4 -14 -4 -20 -2 -20 9 0 10 -6 13 -15 10 -9 -4 -15
0 -15 10 0 10 -6 13 -15 10 -9 -4 -15 -1 -15 7 0 8 30 30 68 49 37 18 69 37
72 40 3 3 16 11 30 18 33 17 164 114 169 125 1 4 8 6 15 4 7 -2 11 -34 10 -93z
m3536 41 c0 -61 -10 -72 -51 -56 l-24 10 28 0 c26 1 27 3 27 51 0 28 5 50 10
50 6 0 10 -25 10 -55z m70 45 c0 -5 -4 -10 -10 -10 -5 0 -10 5 -10 10 0 6 5
10 10 10 6 0 10 -4 10 -10z m145 -20 c0 -17 -8 -29 -27 -38 -16 -7 -28 -17
-28 -21 0 -15 27 -20 39 -8 13 13 26 3 16 -12 -9 -16 -50 -14 -64 3 -15 18 -5
41 25 54 32 15 32 36 -1 28 -14 -4 -25 -3 -25 2 0 16 14 23 40 20 19 -2 25 -9
25 -28z m-545 -1 c0 -6 -8 -8 -19 -4 -11 3 -22 1 -26 -5 -4 -6 4 -10 19 -10
21 0 26 -5 26 -25 0 -22 -4 -25 -36 -25 -35 0 -35 1 -29 33 4 17 9 35 12 40 7
11 53 8 53 -4z m148 5 c19 -5 23 -13 21 -38 -4 -47 -13 -55 -19 -16 -7 47 -40
56 -40 11 0 -17 -4 -31 -10 -31 -13 0 -13 21 0 54 10 28 13 29 48 20z m93 -4
c6 0 8 -4 5 -9 -3 -5 -15 -7 -26 -4 -11 3 -20 1 -20 -5 0 -6 10 -12 23 -14 14
-2 22 -10 22 -23 0 -15 -8 -21 -32 -23 -31 -3 -33 -2 -33 30 0 38 17 61 38 53
8 -3 18 -5 23 -5z m219 -51 c0 -22 -4 -39 -10 -39 -5 0 -10 14 -10 30 0 18 -6
33 -15 36 -22 9 -9 23 15 17 16 -4 20 -14 20 -44z m-60 6 c0 -19 -4 -35 -10
-35 -5 0 -10 16 -10 35 0 19 5 35 10 35 6 0 10 -16 10 -35z m4063 -210 c35
-10 57 -22 57 -31 0 -19 -6 -18 -47 8 -20 11 -49 21 -66 22 -17 1 -32 7 -35
15 -3 9 2 11 14 8 11 -3 45 -13 77 -22z m-38 -25 c-3 -5 -11 -10 -16 -10 -6 0
-7 5 -4 10 3 6 11 10 16 10 6 0 7 -4 4 -10z m-7658 -14 c-12 -9 -14 -16 -7
-21 5 -3 7 -11 4 -17 -4 -6 -10 -5 -15 3 -7 11 -12 12 -29 1 -33 -20 -22 1 13
25 35 24 63 31 34 9z m7673 -17 c0 -15 -18 -19 -23 -6 -3 8 1 14 9 14 8 0 14
-4 14 -8z m-2284 -44 c7 -40 0 -55 -27 -55 -11 0 -19 -7 -19 -17 0 -14 -3 -13
-16 5 -8 12 -13 26 -10 31 3 4 2 22 -3 38 -9 30 -8 31 30 31 36 1 39 -1 45
-33z m-5416 11 c0 -3 -4 -8 -10 -11 -5 -3 -10 -1 -10 4 0 6 5 11 10 11 6 0 10
-2 10 -4z m20 -16 c0 -5 -5 -10 -11 -10 -5 0 -7 5 -4 10 3 6 8 10 11 10 2 0 4
-4 4 -10z m-55 -10 c-3 -5 -11 -10 -16 -10 -6 0 -7 5 -4 10 3 6 11 10 16 10 6
0 7 -4 4 -10z m2765 0 c12 -8 12 -10 -3 -16 -12 -4 -17 -17 -17 -44 0 -21 -3
-46 -6 -55 -12 -30 -19 1 -16 64 4 61 11 71 42 51z m2307 -22 c-3 -7 -5 -2 -5
12 0 14 2 19 5 13 2 -7 2 -19 0 -25z m2680 18 c-5 -15 -24 -18 -24 -3 0 8 6
14 14 14 7 0 12 -5 10 -11z m-7717 -16 c8 -5 11 -12 8 -16 -4 -3 -14 1 -23 10
-18 17 -9 21 15 6z m3274 4 c20 -8 21 -24 1 -24 -11 0 -15 -12 -15 -50 0 -27
-4 -50 -10 -50 -6 0 -10 28 -10 65 0 64 4 71 34 59z m1381 -14 c10 -33 -4 -62
-28 -58 -16 2 -23 11 -25 32 -5 43 40 66 53 26z m-1666 -12 c-1 -7 -5 -24 -9
-38 -7 -22 -8 -21 -9 13 -1 20 4 37 9 37 6 0 10 -6 9 -12z m577 -3 c17 -13 17
-14 2 -15 -15 0 -18 -9 -18 -55 0 -30 -4 -55 -10 -55 -6 0 -10 30 -10 70 0 39
4 70 8 70 5 0 17 -7 28 -15z m-1038 -21 c4 -25 -20 -47 -42 -38 -16 6 -22 45
-9 58 14 14 48 1 51 -20z m1302 -13 c0 -17 -4 -33 -10 -36 -6 -4 -10 8 -10 29
0 20 5 36 10 36 6 0 10 -13 10 -29z m260 -2 c0 -5 -4 -7 -10 -4 -5 3 -10 2
-10 -4 0 -5 6 -12 13 -14 6 -3 2 -6 -10 -6 -22 -1 -31 18 -16 32 10 11 33 8
33 -4z m302 -14 c-2 -14 -8 -28 -13 -31 -10 -6 -12 39 -2 49 13 14 20 6 15
-18z m-312 -81 c0 -8 -5 -14 -12 -14 -6 0 -8 3 -5 7 4 3 2 12 -5 20 -8 11 -7
12 6 7 9 -3 16 -12 16 -20z m-1099 -54 c22 -12 26 -35 5 -27 -16 6 -26 -39
-26 -115 0 -27 -4 -48 -10 -48 -6 0 -10 40 -10 100 0 103 3 110 41 90z m283
-36 c20 -8 21 -24 1 -24 -12 0 -15 -13 -15 -55 0 -30 -4 -55 -10 -55 -6 0 -10
30 -10 70 0 69 3 76 34 64z m1765 -1 c0 -5 -4 -17 -9 -28 -8 -18 -9 -18 -9 -2
-1 10 -7 17 -13 14 -7 -2 -12 -14 -10 -27 3 -15 0 -20 -8 -15 -7 4 -16 1 -21
-6 -6 -10 -9 -2 -9 23 0 30 4 37 23 41 38 7 57 7 56 0z m356 -34 c0 -28 -29
-38 -39 -13 -7 19 11 47 28 41 6 -2 11 -14 11 -28z m-2665 12 c0 -5 -7 -11
-15 -15 -10 -3 -15 -19 -15 -46 0 -22 -4 -40 -10 -40 -5 0 -10 25 -10 55 0 52
1 55 25 55 14 0 25 -4 25 -9z m-224 -23 c-3 -13 -6 -31 -6 -41 0 -10 -4 -16
-8 -13 -11 7 -2 76 10 76 6 0 8 -10 4 -22z m1078 6 c20 -53 -7 -95 -49 -76
-43 20 -31 92 15 92 16 0 30 -7 34 -16z m1074 -40 c3 -34 2 -35 -30 -32 -53 5
-53 68 0 68 25 0 28 -4 30 -36z m-5668 16 c0 -5 -4 -10 -10 -10 -5 0 -10 5
-10 10 0 6 5 10 10 10 6 0 10 -4 10 -10z m8927 -12 c-3 -8 -6 -5 -6 6 -1 11 2
17 5 13 3 -3 4 -12 1 -19z m-4103 -3 c-4 -8 -8 -15 -10 -15 -2 0 -4 7 -4 15 0
8 4 15 10 15 5 0 7 -7 4 -15z m46 1 c0 -8 -4 -18 -10 -21 -5 -3 -10 3 -10 14
0 12 5 21 10 21 6 0 10 -6 10 -14z"/>
<path d="M8225 2920 c3 -5 8 -10 11 -10 2 0 4 5 4 10 0 6 -5 10 -11 10 -5 0
-7 -4 -4 -10z"/>
<path d="M8193 2293 c9 -2 23 -2 30 0 6 3 -1 5 -18 5 -16 0 -22 -2 -12 -5z"/>
<path d="M8258 2283 c7 -3 16 -2 19 1 4 3 -2 6 -13 5 -11 0 -14 -3 -6 -6z"/>
<path d="M2220 3001 c-15 -29 -13 -51 5 -45 8 4 15 12 15 19 0 8 7 21 16 29
14 15 14 16 -5 16 -11 0 -25 -9 -31 -19z"/>
<path d="M6155 2520 c-4 -6 11 -10 36 -10 48 0 49 4 2 13 -18 4 -35 2 -38 -3z"/>
<path d="M5910 2451 c0 -6 4 -13 10 -16 6 -3 7 1 4 9 -7 18 -14 21 -14 7z"/>
<path d="M5840 2441 c0 -6 -8 -11 -17 -12 -10 0 -13 -3 -6 -5 18 -8 49 11 34
20 -6 4 -11 2 -11 -3z"/>
<path d="M5440 2431 c0 -5 5 -13 10 -16 6 -3 10 -2 10 4 0 5 -4 13 -10 16 -5
3 -10 2 -10 -4z"/>
<path d="M5723 2403 c9 -2 23 -2 30 0 6 3 -1 5 -18 5 -16 0 -22 -2 -12 -5z"/>
<path d="M7119 1106 c-6 -13 -9 -36 -5 -50 5 -21 13 -26 36 -26 34 0 53 27 48
68 -2 22 -9 28 -35 30 -27 3 -35 -1 -44 -22z"/>
<path d="M6767 1102 c-21 -23 -22 -65 -2 -82 34 -28 94 50 65 85 -17 20 -43
19 -63 -3z"/>
<path d="M9066 1154 c-19 -18 -20 -28 -6 -55 20 -37 80 -18 80 26 0 42 -44 59
-74 29z"/>
<path d="M9249 1149 c-15 -28 3 -69 30 -69 24 0 51 26 51 49 0 42 -61 57 -81
20z"/>
<path d="M6953 1124 c-25 -11 -12 -24 23 -24 24 0 34 4 32 13 -5 13 -35 19
-55 11z"/>
<path d="M7487 1124 c-15 -16 -5 -24 29 -24 24 0 34 4 32 13 -5 13 -50 22 -61
11z"/>
<path d="M7229 859 c-15 -28 3 -71 26 -63 17 7 30 47 21 69 -8 22 -33 18 -47
-6z"/>
<path d="M4080 679 c0 -5 5 -7 10 -4 6 3 10 8 10 11 0 2 -4 4 -10 4 -5 0 -10
-5 -10 -11z"/>
<path d="M7442 808 c5 -15 28 -18 29 -3 0 6 -7 12 -17 13 -10 3 -15 -1 -12
-10z"/>
<path d="M7690 800 c0 -5 7 -10 15 -10 8 0 15 5 15 10 0 6 -7 10 -15 10 -8 0
-15 -4 -15 -10z"/>
<path d="M9600 475 c0 -8 7 -15 15 -15 8 0 15 7 15 15 0 8 -7 15 -15 15 -8 0
-15 -7 -15 -15z"/>
<path d="M8850 425 c0 -8 5 -15 10 -15 6 0 10 7 10 15 0 8 -4 15 -10 15 -5 0
-10 -7 -10 -15z"/>
<path d="M6714 415 c-7 -17 4 -37 17 -30 12 8 12 45 -1 45 -6 0 -13 -7 -16
-15z"/>
<path d="M9590 181 c0 -12 5 -21 10 -21 6 0 10 6 10 14 0 8 -4 18 -10 21 -5 3
-10 -3 -10 -14z"/>
<path d="M7754 167 c-9 -25 0 -62 16 -62 10 0 15 10 15 34 0 36 -21 54 -31 28z"/>
<path d="M8010 5221 c0 -4 -12 -6 -27 -3 -25 5 -27 4 -14 -11 8 -10 9 -17 3
-17 -6 0 -14 5 -17 10 -4 7 -12 7 -18 2 -7 -4 -49 -8 -95 -7 l-83 1 6 -26 c4
-21 3 -22 -5 -7 -11 17 -33 25 -27 10 1 -5 -1 -8 -5 -8 -15 0 -48 -54 -42 -72
4 -12 3 -14 -3 -6 -7 10 -13 8 -26 -7 -9 -11 -17 -22 -17 -25 0 -9 39 -5 45 5
9 15 55 12 55 -4 0 -9 16 -16 44 -20 24 -4 49 -13 56 -21 9 -11 7 -12 -9 -8
-15 4 -21 1 -21 -11 0 -9 -10 -20 -23 -25 -28 -11 -85 -73 -98 -108 -19 -51
-11 -55 37 -21 106 77 156 105 140 80 -2 -4 13 -6 34 -4 48 5 61 -14 15 -22
-65 -13 -175 -78 -175 -104 0 -6 -6 -12 -12 -15 -7 -2 -10 -8 -6 -12 9 -10 35
3 103 50 57 40 69 43 60 15 -7 -23 18 -76 44 -90 11 -5 31 -10 45 -10 19 0 24
-4 19 -15 -3 -9 3 -25 12 -35 10 -11 15 -21 12 -21 -4 -1 -12 -2 -19 -3 -6 0
-13 -7 -16 -14 -3 -9 6 -11 32 -8 20 3 36 1 36 -4 0 -27 133 7 186 47 22 17
26 25 16 31 -7 5 -25 7 -39 4 -18 -3 -24 -1 -19 7 4 6 12 9 17 6 5 -4 17 -1
26 4 17 10 17 10 1 11 -10 0 -18 4 -18 10 0 5 -7 7 -15 4 -10 -4 -15 0 -15 15
0 22 14 28 25 11 20 -33 55 27 55 94 0 17 12 39 33 60 20 19 33 43 32 55 -2
26 -15 41 -15 16 0 -25 -10 -13 -14 16 -2 13 -7 32 -11 42 -4 9 -5 26 -2 38 4
16 3 18 -9 8 -8 -6 -14 -20 -14 -31 0 -17 -3 -18 -15 -8 -8 7 -15 23 -15 37 0
14 -4 22 -10 18 -14 -9 -80 42 -80 61 0 7 -6 14 -12 14 -7 0 -24 3 -38 6 -24
6 -24 6 -6 -8 10 -8 17 -20 15 -27 -5 -14 -49 19 -49 37 0 10 -23 22 -41 22
-5 0 -9 -4 -9 -9z m-250 -101 c0 -5 7 -6 17 -3 10 4 14 2 9 -5 -9 -15 -46 -11
-46 5 0 7 5 13 10 13 6 0 10 -4 10 -10z m117 -86 c-3 -3 -12 -4 -19 -1 -8 3
-5 6 6 6 11 1 17 -2 13 -5z m53 -200 c0 -8 -4 -14 -10 -14 -5 0 -10 9 -10 21
0 11 5 17 10 14 6 -3 10 -13 10 -21z m174 -25 c10 -52 8 -56 -34 -67 l-40 -10
19 27 c10 14 21 38 25 54 9 36 22 34 30 -4z m63 -41 c-3 -8 -6 -5 -6 6 -1 11
2 17 5 13 3 -3 4 -12 1 -19z"/>
<path d="M11995 5220 c-3 -6 1 -7 9 -4 18 7 21 14 7 14 -6 0 -13 -4 -16 -10z"/>
<path d="M11904 5187 c-120 -64 -250 -208 -285 -315 -6 -20 -16 -42 -21 -48
-18 -24 -22 -205 -5 -269 19 -74 46 -139 54 -131 4 3 2 16 -4 29 -33 68 -38
97 -37 212 0 105 3 128 26 187 56 143 175 276 298 336 25 12 38 22 30 22 -8
-1 -34 -11 -56 -23z"/>
<path d="M7130 4893 c0 -51 11 -67 32 -50 29 22 31 54 6 71 -33 23 -38 20 -38
-21z"/>
<path d="M12954 4866 c3 -27 7 -94 7 -150 1 -96 2 -98 11 -46 8 53 -5 227 -19
240 -3 3 -3 -17 1 -44z"/>
<path d="M7142 4785 c0 -16 2 -22 5 -12 2 9 2 23 0 30 -3 6 -5 -1 -5 -18z"/>
<path d="M7290 4697 c0 -20 4 -25 15 -21 13 5 13 9 3 23 -7 9 -14 18 -15 20
-2 2 -3 -8 -3 -22z"/>
<path d="M12951 4585 c-1 -16 -13 -57 -26 -90 -27 -64 -30 -79 -16 -71 14 9
53 144 48 168 -3 18 -5 17 -6 -7z"/>
<path d="M11652 4403 c11 -25 55 -83 66 -88 7 -3 0 12 -17 32 -17 21 -31 43
-31 50 0 7 -5 13 -11 13 -6 0 -9 -3 -7 -7z"/>
<path d="M12880 4384 c-20 -50 -84 -140 -154 -213 -67 -70 -68 -72 -19 -32 51
41 153 168 153 190 0 6 4 11 8 11 5 0 13 16 19 35 13 41 7 47 -7 9z"/>
<path d="M7400 4252 c0 -6 -8 -13 -17 -15 -16 -4 -16 -5 -1 -6 18 -1 34 16 24
26 -3 4 -6 1 -6 -5z"/>
<path d="M12363 4243 c-10 -3 -9 -8 2 -19 13 -13 18 -13 45 1 16 8 30 18 30
20 0 6 -61 5 -77 -2z"/>
<path d="M12210 4230 c0 -11 60 -11 105 0 23 6 15 8 -37 9 -40 1 -68 -3 -68
-9z"/>
<path d="M7422 4225 c-1 -5 5 -37 13 -70 8 -37 13 -49 13 -30 0 27 -25 124
-26 100z"/>
<path d="M11915 4221 c-75 -6 -78 -7 -51 -19 20 -9 32 -9 41 -2 15 12 163 12
171 -1 3 -5 24 -9 47 -8 35 1 38 2 17 9 l-25 7 25 6 c14 4 34 8 45 10 29 7
-175 4 -270 -2z"/>
<path d="M28 4183 c7 -3 16 -2 19 1 4 3 -2 6 -13 5 -11 0 -14 -3 -6 -6z"/>
<path d="M8282 4148 c-17 -17 -15 -68 1 -68 8 0 24 9 37 20 13 11 37 20 54 20
l31 1 -24 19 c-26 22 -81 26 -99 8z"/>
<path d="M12018 4153 c7 -3 16 -2 19 1 4 3 -2 6 -13 5 -11 0 -14 -3 -6 -6z"/>
<path d="M12108 4143 c7 -3 16 -2 19 1 4 3 -2 6 -13 5 -11 0 -14 -3 -6 -6z"/>
<path d="M91 4124 c0 -11 3 -14 6 -6 3 7 2 16 -1 19 -3 4 -6 -2 -5 -13z"/>
<path d="M12123 3913 c-21 -4 -23 -10 -23 -62 0 -57 1 -59 31 -65 44 -8 101
-7 117 2 8 6 12 29 10 70 l-2 62 -56 -1 c-30 -1 -65 -4 -77 -6z m51 -35 c-4
-13 -7 -34 -6 -48 3 -35 -15 -12 -21 27 -5 34 -1 43 20 43 10 0 12 -6 7 -22z"/>
<path d="M8087 3856 c-18 -14 -22 -26 -9 -26 15 0 45 27 36 33 -5 3 -17 0 -27
-7z"/>
<path d="M8141 3832 c0 -7 -9 -12 -18 -10 -12 2 -19 -5 -21 -20 -2 -15 -9 -22
-17 -18 -7 2 -16 -3 -19 -12 -3 -9 -14 -30 -25 -47 -21 -32 -28 -95 -11 -95 6
0 10 5 10 10 0 6 11 10 25 10 16 0 25 6 25 15 0 8 6 15 13 15 8 0 22 9 32 20
10 11 26 20 36 20 10 0 22 8 28 18 8 15 26 17 145 17 75 -1 136 2 136 6 0 4 7
15 16 24 9 9 14 19 11 22 -3 3 -13 -2 -22 -10 -21 -22 -91 -30 -146 -18 -31 7
-58 7 -80 1 -19 -6 -35 -10 -37 -10 -1 0 -7 11 -12 25 -8 22 -13 24 -29 15
-27 -14 -29 -13 -34 13 -2 12 -5 16 -6 9z"/>
<path d="M12160 3750 c36 -12 60 -12 60 0 0 6 -19 10 -42 9 -37 -1 -39 -2 -18
-9z"/>
<path d="M7926 3518 c7 -11 32 -10 39 2 3 6 -4 9 -19 8 -13 -1 -22 -6 -20 -10z"/>
<path d="M7925 3430 c-3 -5 1 -10 10 -10 9 0 13 5 10 10 -3 6 -8 10 -10 10 -2
0 -7 -4 -10 -10z"/>
<path d="M8073 3388 c-1 -34 32 -40 34 -7 1 14 -3 19 -12 15 -7 -2 -16 0 -18
7 -2 7 -4 0 -4 -15z"/>
<path d="M8125 3360 c3 -5 11 -10 16 -10 6 0 7 5 4 10 -3 6 -11 10 -16 10 -6
0 -7 -4 -4 -10z"/>
<path d="M8211 3351 c-9 -6 -11 -18 -7 -35 6 -24 8 -25 21 -12 19 19 7 59 -14
47z"/>
<path d="M4658 1763 c7 -3 16 -2 19 1 4 3 -2 6 -13 5 -11 0 -14 -3 -6 -6z"/>
<path d="M4321 1724 c0 -11 3 -14 6 -6 3 7 2 16 -1 19 -3 4 -6 -2 -5 -13z"/>
<path d="M3643 1723 c9 -2 23 -2 30 0 6 3 -1 5 -18 5 -16 0 -22 -2 -12 -5z"/>
<path d="M4347 1706 c-4 -9 -14 -12 -26 -9 -12 3 -21 1 -21 -6 0 -17 50 -13
57 4 3 9 3 18 0 21 -2 3 -7 -2 -10 -10z"/>
<path d="M3960 1650 c0 -5 5 -10 10 -10 6 0 10 5 10 10 0 6 -4 10 -10 10 -5 0
-10 -4 -10 -10z"/>
<path d="M4066 1615 c-3 -8 -1 -15 4 -15 6 0 10 7 10 15 0 8 -2 15 -4 15 -2 0
-6 -7 -10 -15z"/>
<path d="M3965 1610 c-4 -6 5 -10 20 -10 15 0 24 4 20 10 -3 6 -12 10 -20 10
-8 0 -17 -4 -20 -10z"/>
<path d="M4030 1610 c0 -5 5 -10 10 -10 6 0 10 5 10 10 0 6 -4 10 -10 10 -5 0
-10 -4 -10 -10z"/>
<path d="M3660 1566 c0 -8 5 -18 10 -21 6 -3 10 3 10 14 0 12 -4 21 -10 21 -5
0 -10 -6 -10 -14z"/>
<path d="M3703 1538 c2 -7 10 -13 17 -13 7 0 15 6 18 13 2 7 -5 12 -18 12 -13
0 -20 -5 -17 -12z"/>
<path d="M5000 1430 c0 -5 5 -10 10 -10 6 0 10 5 10 10 0 6 -4 10 -10 10 -5 0
-10 -4 -10 -10z"/>
<path d="M3341 1344 c0 -11 3 -14 6 -6 3 7 2 16 -1 19 -3 4 -6 -2 -5 -13z"/>
</g>
</svg>
