<svg width="66" height="55" viewBox="0 0 66 55" fill="none" xmlns="http://www.w3.org/2000/svg">
<path d="M64.5017 12.7402L57.5473 1.61133C56.9258 0.612305 55.8221 0 54.6433 0H11.3525C10.1738 0 9.07005 0.612305 8.44855 1.61133L1.49415 12.7402C-2.09557 18.4873 1.08696 26.4795 7.7949 27.3926C8.2771 27.457 8.77002 27.4893 9.26293 27.4893C12.4347 27.4893 15.2422 26.0928 17.171 23.9336C19.0998 26.0928 21.918 27.4893 25.0791 27.4893C28.2509 27.4893 31.0584 26.0928 32.9872 23.9336C34.916 26.0928 37.7342 27.4893 40.8953 27.4893C44.0671 27.4893 46.8746 26.0928 48.8034 23.9336C50.7429 26.0928 53.5504 27.4893 56.7115 27.4893C57.2151 27.4893 57.6973 27.457 58.1795 27.3926C64.9089 26.4902 68.1021 18.498 64.5017 12.7402V12.7402ZM56.7329 30.9375C55.6613 30.9375 54.6005 30.7764 53.5718 30.5293V41.25H12.424V30.5293C11.3953 30.7656 10.3345 30.9375 9.26293 30.9375C8.62 30.9375 7.96635 30.8945 7.33413 30.8086C6.73406 30.7227 6.1447 30.583 5.57678 30.4219V51.5625C5.57678 53.4639 7.1091 55 9.00576 55H57.0115C58.9081 55 60.4405 53.4639 60.4405 51.5625V30.4219C59.8618 30.5938 59.2832 30.7334 58.6831 30.8086C58.0295 30.8945 57.3865 30.9375 56.7329 30.9375Z" fill="black"/>
</svg>
